<svg width="50" height="50" viewBox="0 0 50 50" fill="none" xmlns="http://www.w3.org/2000/svg">
<circle cx="25" cy="25" r="20.8333" fill="#93C381"/>
<path d="M25 45.8333C22.1527 45.8333 19.4618 45.2864 16.927 44.1927C14.3923 43.0989 12.1788 41.6059 10.2864 39.7135C8.39406 37.8211 6.901 35.6076 5.80725 33.0729C4.7135 30.5382 4.16663 27.8472 4.16663 25C4.16663 22.118 4.7135 19.4097 5.80725 16.875C6.901 14.3402 8.39406 12.1354 10.2864 10.2604C12.1788 8.38538 14.3923 6.901 16.927 5.80725C19.4618 4.7135 22.1527 4.16663 25 4.16663C27.8819 4.16663 30.5902 4.7135 33.125 5.80725C35.6597 6.901 37.8645 8.38538 39.7395 10.2604C41.6145 12.1354 43.0989 14.3402 44.1927 16.875C45.2864 19.4097 45.8333 22.118 45.8333 25C45.8333 27.8472 45.2864 30.5382 44.1927 33.0729C43.0989 35.6076 41.6145 37.8211 39.7395 39.7135C37.8645 41.6059 35.6597 43.0989 33.125 44.1927C30.5902 45.2864 27.8819 45.8333 25 45.8333ZM25 7.29163C20.7638 7.29163 17.0486 8.60239 13.8541 11.2239C10.6597 13.8454 8.61107 17.1527 7.70829 21.1458C9.1319 21.1458 10.3038 20.8073 11.2239 20.1302C12.1441 19.4531 13.1076 18.125 14.1145 16.1458C14.6007 15.1736 15.3038 14.4097 16.2239 13.8541C17.1441 13.2986 18.1597 13.0208 19.2708 13.0208H30.7291C31.8402 13.0208 32.8559 13.2986 33.776 13.8541C34.6961 14.4097 35.3993 15.1736 35.8854 16.1458C36.8923 18.2291 37.8993 19.5833 38.9062 20.2083C39.9132 20.8333 41.0416 21.1458 42.2916 21.1458C41.3888 17.1527 39.3489 13.8454 36.1718 11.2239C32.9947 8.60239 29.2708 7.29163 25 7.29163ZM25 42.7083C29.9305 42.7083 34.1145 40.9809 37.552 37.526C40.9895 34.0711 42.7083 29.8958 42.7083 25V24.375C40.0694 24.375 38.0295 23.6892 36.5885 22.3177C35.1475 20.9461 33.9757 19.375 33.0729 17.6041C32.8298 17.118 32.5086 16.7534 32.1093 16.5104C31.71 16.2673 31.2673 16.1458 30.7812 16.1458H19.2708C18.75 16.1458 18.2899 16.2673 17.8906 16.5104C17.4913 16.7534 17.1701 17.118 16.927 17.6041C16.0243 19.4097 14.8263 20.9982 13.3333 22.3698C11.8402 23.7413 9.82635 24.427 7.29163 24.427V25C7.29163 29.8958 9.01906 34.0711 12.4739 37.526C15.9288 40.9809 20.1041 42.7083 25 42.7083ZM18.4375 30.052C17.6388 30.052 16.9704 29.7829 16.4323 29.2448C15.8941 28.7066 15.625 28.0382 15.625 27.2395C15.625 26.4409 15.8941 25.7725 16.4323 25.2343C16.9704 24.6961 17.6388 24.427 18.4375 24.427C19.2361 24.427 19.9045 24.6961 20.4427 25.2343C20.9809 25.7725 21.25 26.4409 21.25 27.2395C21.25 28.0382 20.9809 28.7066 20.4427 29.2448C19.9045 29.7829 19.2361 30.052 18.4375 30.052ZM31.6145 30.052C30.8159 30.052 30.1475 29.7829 29.6093 29.2448C29.0711 28.7066 28.802 28.0382 28.802 27.2395C28.802 26.4409 29.0711 25.7725 29.6093 25.2343C30.1475 24.6961 30.8159 24.427 31.6145 24.427C32.4132 24.427 33.0816 24.6961 33.6198 25.2343C34.1579 25.7725 34.427 26.4409 34.427 27.2395C34.427 28.0382 34.1579 28.7066 33.6198 29.2448C33.0816 29.7829 32.4132 30.052 31.6145 30.052Z" fill="black"/>
</svg>
